<svg width="1068" height="170" viewBox="0 0 1068 170" fill="none" xmlns="http://www.w3.org/2000/svg">
<path d="M8.54025 136V35.5052H26.926L72.3332 100.83H72.7511V35.5052H93.7136V136H75.4672L29.9206 70.1874H29.5028V136H8.54025ZM119.055 136V35.5052H185.634V52.8463H140.087V76.9428H183.057V93.3785H140.087V118.659H185.634V136H119.055ZM233.401 136V52.8463H204.36V35.5052H283.544V52.8463H254.433V136H233.401Z" fill="url(#paint0_linear_33_1004)"/>
<g clip-path="url(#clip0_33_1004)">
<path d="M659.641 116.243C659.288 117.269 658.71 118.2 657.953 118.968C657.321 119.511 656.511 119.793 655.683 119.757C654.885 119.757 654.11 119.479 653.491 118.968C652.676 118.213 652.065 117.26 651.714 116.199L622.484 34.3137H602.518L635.356 122.993C636.824 127.421 639.623 131.27 643.36 134.001C646.897 136.551 651.136 137.905 655.475 137.871C659.861 137.922 664.151 136.568 667.733 134.001C671.443 131.22 674.261 127.391 675.835 122.993L708.651 34.3137H689.08L659.641 116.243Z" fill="white"/>
<path d="M1063.28 34.3137H1043.12L1016.65 75.3675H988.146V34.3137H970.012V135.503H988.19V91.2464H1017.44L1046.28 135.492H1066.86L1032.26 81.728L1063.28 34.3137Z" fill="white"/>
<path d="M553.508 36.1293C549.965 33.5625 545.714 32.193 541.36 32.2152C536.975 32.171 532.687 33.5245 529.102 36.0848C525.392 38.8684 522.57 42.6965 520.988 47.0933L488.184 135.817H507.744L515.934 113.044H566.281L574.406 135.817H594.372L561.501 47.1377C560.042 42.7082 557.246 38.8566 553.508 36.1293ZM521.712 97.1762L537.259 53.8874C537.588 52.8548 538.138 51.9091 538.871 51.1186C539.502 50.575 540.313 50.293 541.141 50.3291C541.94 50.3271 542.714 50.6061 543.333 51.1186C544.151 51.8705 544.763 52.8244 545.11 53.8874L560.569 97.1762H521.657H521.712Z" fill="white"/>
<path d="M811.706 90.0566C816.778 84.9638 819.315 77.9213 819.315 68.9292V63.0692C819.315 54.0771 816.778 47.0346 811.706 41.9418C806.633 36.849 799.616 34.3063 790.654 34.3137H736.36V135.503H754.549V97.6958H783.484L805.292 135.503H826.113L802.803 95.7388C806.145 94.5291 809.184 92.5893 811.706 90.0566ZM801.125 67.7394C801.125 72.1873 799.919 75.7345 797.474 78.2586C795.029 80.7828 791.641 82.0282 787.299 82.0282H754.549V50.0258H787.299C791.641 50.0258 795.033 51.2786 797.474 53.7843C799.919 56.2973 801.125 59.8 801.125 64.3035V67.7394Z" fill="white"/>
<path d="M896.509 78.6622C895.698 80.1189 894.755 82.6319 892.869 82.6987H892.42C890.523 82.6319 889.591 80.1189 888.78 78.6622C883.232 68.1319 873.254 49.3063 865.13 33.9612H843.662L860.108 64.2845L870.163 82.7098C872.081 86.0457 873.989 90.4268 876.445 93.3735C878.298 95.6977 880.619 97.5933 883.254 98.9334V135.628H901.948V98.9222C904.585 97.5827 906.91 95.6871 908.767 93.3624C911.223 90.4157 913.153 86.0123 915.05 82.6987L925.093 64.2734L941.66 33.9612H920.137L896.487 78.6622H896.509Z" fill="white"/>
<path d="M459.52 34.4344H418.876C418.211 34.4358 417.569 34.6806 417.067 35.1238L396.992 53.0153C396.685 52.3593 396.367 51.7032 396.005 51.0694C392.797 45.2737 388.054 40.5049 382.311 37.3033C376.379 33.934 369.176 32.2104 360.887 32.2104H360.547C352.258 32.2104 345.043 33.934 339.134 37.3033C333.376 40.509 328.626 45.2955 325.429 51.1139C322.271 56.8968 320.636 63.4072 320.681 70.0173V135.901H339.32V70.0173C339.287 67.2101 339.811 64.4248 340.858 61.8264C341.906 59.2279 343.458 56.8692 345.421 54.8898C347.384 52.9104 349.718 51.3506 352.286 50.3028C354.854 49.255 357.604 48.7406 360.371 48.7899H361.051C364.734 48.7256 368.368 49.662 371.574 51.5019C374.78 53.3418 377.442 56.0182 379.285 59.2535C381.156 62.5203 382.122 66.2394 382.08 70.0173V135.901H400.72V74.2539L437.23 41.7289C437.722 41.2913 438.328 41.0067 438.976 40.9089C439.623 40.8112 440.285 40.9045 440.881 41.1777C441.478 41.4508 441.984 41.8924 442.34 42.4495C442.696 43.0067 442.886 43.656 442.888 44.3198V135.846H462.25V37.2032C462.248 36.4697 461.959 35.7672 461.448 35.2486C460.936 34.73 460.244 34.4373 459.52 34.4344Z" fill="white"/>
</g>
<defs>
<linearGradient id="paint0_linear_33_1004" x1="287" y1="85" x2="0" y2="85" gradientUnits="userSpaceOnUse">
<stop stop-color="#FF47CE"/>
<stop offset="1" stop-color="#9011FF"/>
</linearGradient>
<clipPath id="clip0_33_1004">
<rect width="746.66" height="105.637" fill="white" transform="translate(320.68 32.1816)"/>
</clipPath>
</defs>
</svg>
