<svg width="50" height="33" viewBox="0 0 50 33" fill="none" xmlns="http://www.w3.org/2000/svg">
<path d="M4.91983 22V6.03544H7.84058L15.054 16.413H15.1203V6.03544H18.4504V22H15.5518L8.31631 11.545H8.24993V22H4.91983ZM21.1167 22V6.03544H31.6934V8.79024H24.4579V12.6182H31.284V15.2292H24.4579V19.2452H31.6934V22H21.1167ZM37.9221 22V8.79024H33.3087V6.03544H45.8878V8.79024H41.2633V22H37.9221Z" fill="url(#paint0_linear_1_375)"/>
<g clip-path="url(#clip0_1_375)">
<path d="M23.2968 31.1657C23.2792 31.2165 23.2506 31.2626 23.2131 31.3007C23.1818 31.3276 23.1416 31.3416 23.1006 31.3398C23.061 31.3398 23.0227 31.326 22.992 31.3007C22.9516 31.2633 22.9213 31.216 22.9039 31.1635L21.4554 27.1057H20.4661L22.0933 31.5001C22.1661 31.7195 22.3048 31.9103 22.4899 32.0456C22.6652 32.172 22.8753 32.2391 23.0903 32.2374C23.3076 32.2399 23.5202 32.1728 23.6977 32.0456C23.8816 31.9078 24.0212 31.7181 24.0992 31.5001L25.7254 27.1057H24.7556L23.2968 31.1657Z" fill="white"/>
<path d="M43.299 27.1057H42.2999L40.9883 29.1401H39.5757V27.1057H38.677V32.12H39.5778V29.927H41.0274L42.4563 32.1195H43.4761L41.7614 29.4553L43.299 27.1057Z" fill="white"/>
<path d="M18.0375 27.1957C17.8619 27.0685 17.6513 27.0007 17.4355 27.0018C17.2182 26.9996 17.0058 27.0666 16.8281 27.1935C16.6442 27.3315 16.5044 27.5212 16.426 27.739L14.8004 32.1357H15.7697L16.1756 31.0072H18.6705L19.0731 32.1357H20.0625L18.4336 27.7412C18.3613 27.5217 18.2227 27.3309 18.0375 27.1957ZM16.4619 30.2208L17.2323 28.0757C17.2486 28.0245 17.2759 27.9777 17.3122 27.9385C17.3435 27.9116 17.3836 27.8976 17.4246 27.8994C17.4642 27.8993 17.5026 27.9131 17.5333 27.9385C17.5738 27.9758 17.6042 28.023 17.6213 28.0757L18.3874 30.2208H16.4592H16.4619Z" fill="white"/>
<path d="M30.8323 29.868C31.0836 29.6156 31.2093 29.2666 31.2093 28.8211V28.5307C31.2093 28.0851 31.0836 27.7361 30.8323 27.4837C30.5809 27.2313 30.2332 27.1053 29.7891 27.1057H27.0986V32.12H27.9999V30.2465H29.4338L30.5144 32.12H31.5462L30.3911 30.1496C30.5567 30.0896 30.7073 29.9935 30.8323 29.868ZM30.308 28.7621C30.308 28.9825 30.2482 29.1583 30.127 29.2834C30.0059 29.4084 29.838 29.4702 29.6228 29.4702H27.9999V27.8843H29.6228C29.838 27.8843 30.0061 27.9464 30.127 28.0706C30.2482 28.1951 30.308 28.3687 30.308 28.5918V28.7621Z" fill="white"/>
<path d="M35.0347 29.3035C34.9945 29.3757 34.9478 29.5002 34.8543 29.5035H34.832C34.738 29.5002 34.6919 29.3757 34.6517 29.3035C34.3767 28.7817 33.8823 27.8488 33.4797 27.0884H32.4159L33.2309 28.591L33.7291 29.5041C33.8242 29.6694 33.9187 29.8865 34.0404 30.0325C34.1322 30.1477 34.2473 30.2416 34.3778 30.308V32.1264H35.3042V30.3075C35.4349 30.2411 35.5501 30.1471 35.6421 30.0319C35.7638 29.8859 35.8594 29.6677 35.9534 29.5035L36.4511 28.5905L37.2721 27.0884H36.2055L35.0336 29.3035H35.0347Z" fill="white"/>
<path d="M13.3801 27.1119H11.366C11.333 27.112 11.3012 27.1241 11.2764 27.1461L10.2815 28.0327C10.2663 28.0002 10.2506 27.9677 10.2326 27.9362C10.0737 27.649 9.83862 27.4127 9.55404 27.2541C9.2601 27.0871 8.90314 27.0017 8.49239 27.0017H8.47555C8.0648 27.0017 7.7073 27.0871 7.41445 27.2541C7.12915 27.4129 6.89377 27.6501 6.7353 27.9384C6.57884 28.225 6.49782 28.5476 6.50004 28.8752V32.14H7.42369V28.8752C7.42207 28.7361 7.44799 28.5981 7.49991 28.4693C7.55184 28.3405 7.62871 28.2236 7.72599 28.1256C7.82326 28.0275 7.93895 27.9502 8.06621 27.8983C8.19347 27.8463 8.32971 27.8208 8.46686 27.8233H8.50054C8.68307 27.8201 8.8631 27.8665 9.02198 27.9577C9.18086 28.0489 9.31279 28.1815 9.40408 28.3418C9.49682 28.5037 9.54469 28.688 9.54263 28.8752V32.14H10.4663V29.0851L12.2755 27.4734C12.2999 27.4517 12.3299 27.4376 12.362 27.4328C12.3941 27.4279 12.4269 27.4325 12.4564 27.4461C12.486 27.4596 12.5111 27.4815 12.5287 27.5091C12.5464 27.5367 12.5558 27.5689 12.5559 27.6018V32.1373H13.5154V27.2491C13.5152 27.2128 13.5009 27.178 13.4756 27.1523C13.4503 27.1266 13.4159 27.1121 13.3801 27.1119Z" fill="white"/>
</g>
<defs>
<linearGradient id="paint0_linear_1_375" x1="50" y1="13.5" x2="0" y2="13.5" gradientUnits="userSpaceOnUse">
<stop stop-color="#FF47CE"/>
<stop offset="1" stop-color="#9011FF"/>
</linearGradient>
<clipPath id="clip0_1_375">
<rect width="37" height="5.23473" fill="white" transform="translate(6.5 27)"/>
</clipPath>
</defs>
</svg>
